<svg width="32" height="32" viewBox="0 0 32 32" fill="none" xmlns="http://www.w3.org/2000/svg">
	<path fill="#ffffff" d="M8.632 6.254L18.365 6.487C18.6351 6.47253 18.9059 6.47922 19.175 6.507H19.19L19.188 6.508C20.452 6.636 21.646 7.215 22.667 8.429C23.08 8.417 24.544 8.428 25.9 8.438C26.729 8.444 27.518 8.45 28 8.45C27.355 9.075 24.355 11.697 23.755 12.178C24.435 15.953 23.337 18.679 21.363 20.648L23.477 23.275L21.909 24.536L19.813 21.931C13.967 25.986 4 25.743 4 25.743C4 25.743 5.043 24.915 6.44 23.54L6.474 23.535C7.98485 23.3291 9.48975 23.0816 10.987 22.793C12.637 22.469 14.367 22.061 15.751 21.564C16.438 21.318 17.1 21.029 17.637 20.684C18.127 20.371 18.768 19.853 18.997 19.049C19.452 17.453 19.129 16.005 18.274 14.912C17.454 13.864 16.228 13.242 14.999 13.03C14.4173 12.9377 13.8223 12.9791 13.259 13.151C13.388 12.631 13.479 12.109 13.527 11.586C13.527 11.013 13.621 10.461 13.796 9.946L8.632 6.254ZM18.934 12.291C19.2409 12.291 19.5351 12.1691 19.7521 11.9521C19.9691 11.7351 20.091 11.4409 20.091 11.134C20.091 10.8271 19.9691 10.5329 19.7521 10.3159C19.5351 10.0989 19.2409 9.977 18.934 9.977C18.6271 9.977 18.3329 10.0989 18.1159 10.3159C17.8989 10.5329 17.777 10.8271 17.777 11.134C17.777 11.4409 17.8989 11.7351 18.1159 11.9521C18.3329 12.1691 18.6271 12.291 18.934 12.291Z" />
	<path fill="#ffffff" d="M17.593 18.805C16.88 20.25 11.707 21.308 8.027 21.887C6.78519 22.0839 5.53923 22.2536 4.29 22.396L10.558 16.613C10.558 16.613 11.498 15.579 12.674 14.92C13.337 14.548 14.074 14.295 14.76 14.413C16.66 14.742 18.32 16.303 17.648 18.664L17.645 18.674C17.6314 18.7191 17.614 18.7629 17.593 18.805Z" />
</svg>